<svg width="122.88" height="120.15" xmlns="http://www.w3.org/2000/svg" data-name="Layer 1" >
 <title>abs-six-pack</title>

 <style>
 path {
  stroke-dasharray: 320;
  stroke-dashoffset: 0;
  -webkit-animation: dash 7s linear;
          animation: dash 7s linear;
 }

 @-webkit-keyframes dash {
  from {
    stroke-dashoffset: 320;
  }
  to {
    stroke-dashoffset: 0;
  }
 }
@keyframes dash {
  from {
    stroke-dashoffset: 320;
  }
  to {
    stroke-dashoffset: 0;
  }
 }

</style><g>
  <title>Layer 1</title>
  <path id="svg_1" class="path"  fill="#000" stroke="#000" stroke-width="1" d="m72.43,1.68a1.58,1.58 0 1 1 3.15,-0.2a10.19,10.19 0 0 0 1.58,5.06a9.86,9.86 0 0 0 4.19,3.46a60.56,60.56 0 0 1 9,4a127.37,127.37 0 0 1 11.06,6.76a27.58,27.58 0 0 1 9,4.25a22.08,22.08 0 0 1 6.34,7.24l0,0.08a26.94,26.94 0 0 1 2.31,7.12a55.65,55.65 0 0 1 0.9,9.16a74.53,74.53 0 0 1 2.56,15.46a141,141 0 0 1 0,16.82a1.58,1.58 0 1 1 -3.16,-0.16a134.86,134.86 0 0 0 0,-16.45a70.76,70.76 0 0 0 -2.36,-14.96a1.78,1.78 0 0 1 -0.08,-0.47a52.15,52.15 0 0 0 -0.86,-8.83a23.5,23.5 0 0 0 -2,-6.26a19.06,19.06 0 0 0 -5.44,-6.22a24.42,24.42 0 0 0 -8.23,-3.81a1.74,1.74 0 0 1 -0.48,-0.22a125.93,125.93 0 0 0 -11,-6.75a56.71,56.71 0 0 0 -8.59,-3.83l-0.21,-0.08a12.92,12.92 0 0 1 -5.59,-4.55a13.39,13.39 0 0 1 -2.09,-6.62zm5.89,49.66a1.73,1.73 0 1 1 -1.72,1.72a1.72,1.72 0 0 1 1.72,-1.72zm-32.84,0a1.73,1.73 0 1 1 -1.72,1.72a1.72,1.72 0 0 1 1.72,-1.72zm32.26,-27.91a1.32,1.32 0 1 1 0.89,2.48a43.9,43.9 0 0 0 -6.53,2.92a34.08,34.08 0 0 0 -5.71,4a1.32,1.32 0 0 1 -1.86,-0.14a1.31,1.31 0 0 1 0.14,-1.86a36.66,36.66 0 0 1 6.15,-4.27a45.87,45.87 0 0 1 6.92,-3.1l0,-0.03zm-32.6,2.48a1.32,1.32 0 1 1 0.86,-2.48a46.44,46.44 0 0 1 7,3.1a37.3,37.3 0 0 1 6.15,4.27a1.32,1.32 0 0 1 -1.72,2a34.8,34.8 0 0 0 -5.71,-4a43.56,43.56 0 0 0 -6.54,-2.92l-0.04,0.03zm15.44,11.09a1.32,1.32 0 0 1 2.64,0l0,19.45l16.09,0a28.11,28.11 0 0 0 9.24,-2.45a9.86,9.86 0 0 0 5.65,-6.49a1.31,1.31 0 1 1 2.55,0.61c-1,4 -3.67,6.58 -7,8.25a31.14,31.14 0 0 1 -10.14,2.68l-0.23,0c-9.79,0 -19.59,0 -29.38,0c-4.45,0 -8.74,0.08 -13.17,-1.52a18.21,18.21 0 0 1 -6.08,-3.53a20.3,20.3 0 0 1 -4,-4.91a1.32,1.32 0 1 1 2.27,-1.34a18,18 0 0 0 3.48,4.25a15.41,15.41 0 0 0 5.2,3.05c4,1.44 8,1.41 12.26,1.38l2,0l8.61,0l0,-19.43l0.01,0zm0.16,61.17a1.32,1.32 0 1 1 2.64,0l-2.65,-0.03l0.01,0.03zm-15,0.34a1.31,1.31 0 1 1 2.59,0.42a13.89,13.89 0 0 0 -0.2,3.15a4.45,4.45 0 0 0 0.67,2.18c0.87,1.27 1.9,1.27 3.34,1.26l7.3,0a1.32,1.32 0 0 1 0,2.64l-7.3,0c-2.25,0 -3.87,0 -5.52,-2.4a7,7 0 0 1 -1.13,-3.46a16,16 0 0 1 0.24,-3.78l0.01,-0.01zm15,-17.18a1.32,1.32 0 0 1 2.64,0l0,8.51a1.3,1.3 0 0 1 1.07,-0.55l7.8,0c1.58,0 2.7,0 3.66,-1.39a4.78,4.78 0 0 0 0.73,-2.38a15,15 0 0 0 -0.21,-3.4a1.31,1.31 0 0 1 2.57,-0.44a17,17 0 0 1 0.25,4a7.36,7.36 0 0 1 -1.19,3.66c-1.74,2.55 -3.45,2.55 -5.83,2.53l-7.8,0a1.33,1.33 0 0 1 -1.29,-1a1.32,1.32 0 0 1 -2.42,-0.73l0,-8.84l0.02,0.03zm-16.08,0.38a1.31,1.31 0 1 1 2.59,0.41a15,15 0 0 0 -0.21,3.4a4.78,4.78 0 0 0 0.73,2.38c1,1.41 2.08,1.4 3.65,1.39l7.81,0a1.32,1.32 0 1 1 0,2.64l-7.8,0c-2.38,0 -4.09,0 -5.83,-2.53a7.36,7.36 0 0 1 -1.19,-3.66a17,17 0 0 1 0.25,-4c0,-0.01 0,-0.02 0,-0.03zm15.93,-19a1.32,1.32 0 0 1 2.64,0l0,10.72a1.32,1.32 0 1 1 -2.64,0l0,-10.76l0,0.04zm19.11,1.5a1.31,1.31 0 0 1 1.09,-1.51a1.33,1.33 0 0 1 1.51,1.1a20.68,20.68 0 0 1 0.29,4.82a8.67,8.67 0 0 1 -1.39,4.32c-2,3 -4.06,3 -6.88,3l-9.5,0a1.32,1.32 0 1 1 0,-2.64l9.51,0c2,0 3.44,0 4.69,-1.81a6.13,6.13 0 0 0 0.94,-3a18.2,18.2 0 0 0 -0.26,-4.21l0,-0.07zm-38.7,-0.45a1.32,1.32 0 1 1 2.6,0.41a18.24,18.24 0 0 0 -0.27,4.21a6.23,6.23 0 0 0 0.94,3c1.28,1.87 2.73,1.86 4.73,1.85l9.51,0a1.32,1.32 0 1 1 0,2.64l-9.51,0c-2.82,0 -4.83,0 -6.87,-3a8.78,8.78 0 0 1 -1.4,-4.32a20.18,20.18 0 0 1 0.3,-4.82l-0.03,0.03zm58.29,54.47a1.58,1.58 0 0 1 -3.08,0.68c-0.83,-3.75 -1.77,-7.4 -2.65,-10.85a152.46,152.46 0 0 1 -3.49,-15.94c-1.13,-7.77 -1,-8.34 0.25,-12.79c0.31,-1.15 0.71,-2.6 1.21,-4.74a80.13,80.13 0 0 1 3.64,-11a75.21,75.21 0 0 0 5.07,-18a1.58,1.58 0 1 1 3.13,0.46a72.91,72.91 0 0 1 -4.37,16.36a77.55,77.55 0 0 0 1.51,11.06a21,21 0 0 0 2.63,6.86a1.58,1.58 0 0 1 -2.64,1.73a24.1,24.1 0 0 1 -3.07,-7.89c-0.36,-1.57 -0.67,-3.3 -0.93,-5.21a59.31,59.31 0 0 0 -1.91,6.34c-0.47,2 -0.9,3.59 -1.25,4.86c-1.06,3.88 -1.19,4.37 -0.15,11.51a148.31,148.31 0 0 0 3.42,15.61c0.84,3.31 1.74,6.82 2.66,11l0.02,-0.05zm-72.47,-0.3a1.57,1.57 0 0 1 -1.82,1.19a1.59,1.59 0 0 1 -1.2,-1.89c0.85,-3.71 1.66,-6.9 2.43,-9.93a149.87,149.87 0 0 0 3.43,-15.63c1,-7.14 0.9,-7.63 -0.16,-11.51c-0.34,-1.27 -0.78,-2.86 -1.25,-4.86a58,58 0 0 0 -1.92,-6.3c-0.26,1.88 -0.56,3.59 -0.92,5.14a24.1,24.1 0 0 1 -3.07,7.89a1.58,1.58 0 0 1 -2.64,-1.73a21,21 0 0 0 2.63,-6.86a78.28,78.28 0 0 0 1.51,-11a72.65,72.65 0 0 1 -4.38,-16.36a1.58,1.58 0 1 1 3.13,-0.46a75.35,75.35 0 0 0 5.07,18a80.14,80.14 0 0 1 3.63,11c0.51,2.15 0.91,3.59 1.22,4.74c1.22,4.45 1.37,5 0.24,12.79a152.81,152.81 0 0 1 -3.49,16c-0.8,3.15 -1.65,6.47 -2.42,9.85l-0.02,-0.07zm20.47,-116.45a1.58,1.58 0 1 1 3.16,0.2a13.23,13.23 0 0 1 -2.1,6.61a12.78,12.78 0 0 1 -5.57,4.56l-0.22,0.08a57.09,57.09 0 0 0 -8.56,3.83a124.46,124.46 0 0 0 -11,6.75a1.74,1.74 0 0 1 -0.48,0.22a24.42,24.42 0 0 0 -8.23,3.81a19,19 0 0 0 -5.44,6.21a23.69,23.69 0 0 0 -2,6.27a52.15,52.15 0 0 0 -0.85,8.83a1.78,1.78 0 0 1 -0.08,0.47a71.41,71.41 0 0 0 -2.53,14.94a137,137 0 0 0 0,16.45a1.58,1.58 0 1 1 -3.16,0.16a138.91,138.91 0 0 1 0,-16.82a74.53,74.53 0 0 1 2.57,-15.46a55.65,55.65 0 0 1 0.9,-9.16a26.94,26.94 0 0 1 2.3,-7.12l0,-0.08a22.08,22.08 0 0 1 6.39,-7.23a27.58,27.58 0 0 1 9,-4.25a127.37,127.37 0 0 1 11.1,-6.75a60.11,60.11 0 0 1 9,-4a9.86,9.86 0 0 0 4.19,-3.41a10.08,10.08 0 0 0 1.57,-5.06l0.04,-0.05z"/>
 </g>
</svg>